]&gt;
<svg xml:space="preserve" viewBox="0 0 1000 550" height="550px" width="1000px" y="0px" x="0px" xmlns:xlink="http://www.w3.org/1999/xlink" xmlns="http://www.w3.org/2000/svg" version="1.1">
<metadata>
	
		
		
	
</metadata>
<g id="FILL-BACKGROUND">
	<rect height="550" width="1000" fill="#FFFFFF"></rect>
</g>
<g id="N-DIMENSIONS">
</g>
<g id="N-TEXT">
	<g id="MTEXT_00000134221680715630524380000006572457276972124082_">
		<g>
			<g>
				<path d="M70.415,452.646c-0.585,0-1.086-0.194-1.505-0.582c-0.419-0.388-0.628-0.855-0.628-1.403
					s0.209-1.017,0.628-1.408c0.418-0.391,0.917-0.586,1.496-0.586c0.591,0,1.094,0.194,1.51,0.582s0.623,0.855,0.623,1.403
					s-0.208,1.018-0.623,1.408C71.5,452.451,70.999,452.646,70.415,452.646z M68.43,468.656v-14.182h3.933v14.182H68.43z" fill="#00B9D2"></path>
				<path d="M75.576,468.656v-18.909h7.46c1.434,0,2.656,0.272,3.666,0.817c1.01,0.544,1.78,1.299,2.313,2.262
					c0.532,0.963,0.799,2.073,0.799,3.329s-0.271,2.364-0.812,3.324c-0.542,0.96-1.325,1.708-2.35,2.244
					c-1.025,0.536-2.264,0.803-3.716,0.803h-4.755v-3.204h4.109c0.769,0,1.405-0.134,1.906-0.402
					c0.502-0.268,0.877-0.64,1.126-1.117c0.25-0.477,0.374-1.026,0.374-1.648c0-0.628-0.125-1.177-0.374-1.648
					c-0.249-0.471-0.626-0.837-1.131-1.099c-0.505-0.262-1.145-0.393-1.92-0.393h-2.696v15.641H75.576z" fill="#00B9D2"></path>
				<path d="M96.008,468.923c-0.905,0-1.711-0.158-2.419-0.475c-0.708-0.317-1.267-0.788-1.676-1.413
					c-0.41-0.625-0.614-1.405-0.614-2.34c0-0.788,0.145-1.45,0.434-1.985c0.289-0.536,0.683-0.966,1.182-1.293
					c0.499-0.326,1.066-0.572,1.704-0.738c0.637-0.167,1.307-0.283,2.008-0.351c0.825-0.086,1.489-0.167,1.994-0.245
					s0.871-0.192,1.099-0.346s0.342-0.382,0.342-0.683v-0.056c0-0.584-0.183-1.037-0.549-1.357c-0.366-0.32-0.885-0.48-1.556-0.48
					c-0.708,0-1.271,0.156-1.69,0.466c-0.418,0.311-0.695,0.7-0.831,1.168l-3.638-0.295c0.185-0.862,0.548-1.608,1.089-2.239
					c0.542-0.631,1.242-1.117,2.101-1.459c0.859-0.342,1.854-0.513,2.987-0.513c0.788,0,1.543,0.093,2.267,0.277
					c0.723,0.185,1.366,0.471,1.93,0.858c0.563,0.388,1.008,0.885,1.334,1.491c0.326,0.606,0.489,1.331,0.489,2.174v9.565h-3.73
					v-1.967h-0.111c-0.228,0.443-0.533,0.833-0.914,1.168c-0.382,0.336-0.84,0.597-1.376,0.785
					C97.328,468.83,96.709,468.923,96.008,468.923z M97.134,466.209c0.578,0,1.089-0.115,1.533-0.346
					c0.443-0.231,0.791-0.543,1.043-0.937s0.379-0.84,0.379-1.339v-1.505c-0.124,0.08-0.291,0.152-0.503,0.217
					s-0.451,0.123-0.715,0.175c-0.265,0.053-0.53,0.099-0.794,0.139s-0.504,0.076-0.72,0.106c-0.461,0.068-0.865,0.176-1.209,0.323
					c-0.345,0.148-0.612,0.346-0.803,0.596c-0.191,0.249-0.286,0.559-0.286,0.928c0,0.536,0.195,0.943,0.586,1.224
					C96.034,466.069,96.531,466.209,97.134,466.209z" fill="#00B9D2"></path>
				<path d="M112.276,468.887c-1.077,0-2.051-0.278-2.922-0.836c-0.871-0.557-1.56-1.378-2.068-2.465
					s-0.762-2.42-0.762-4.002c0-1.625,0.261-2.978,0.785-4.058c0.523-1.08,1.22-1.89,2.091-2.428s1.827-0.808,2.867-0.808
					c0.794,0,1.458,0.134,1.99,0.402s0.963,0.6,1.292,0.997c0.33,0.397,0.58,0.787,0.752,1.168h0.12v-7.109h3.924v18.909h-3.878
					v-2.271h-0.167c-0.185,0.394-0.444,0.784-0.78,1.168c-0.336,0.385-0.77,0.704-1.302,0.956
					C113.687,468.76,113.039,468.887,112.276,468.887z M113.522,465.757c0.634,0,1.171-0.174,1.611-0.522
					c0.44-0.348,0.779-0.835,1.016-1.463c0.237-0.628,0.355-1.363,0.355-2.207s-0.117-1.576-0.351-2.198
					c-0.234-0.622-0.572-1.102-1.016-1.44s-0.982-0.508-1.616-0.508c-0.646,0-1.191,0.175-1.634,0.526
					c-0.443,0.351-0.779,0.837-1.006,1.459c-0.228,0.622-0.342,1.342-0.342,2.161c0,0.825,0.116,1.553,0.346,2.184
					c0.231,0.631,0.566,1.124,1.006,1.477C112.333,465.58,112.876,465.757,113.522,465.757z" fill="#00B9D2"></path>
				<path d="M132.93,468.656h-4.284l6.528-18.909h5.152l6.519,18.909h-4.284l-4.736-14.588h-0.148L132.93,468.656z
					 M132.662,461.223h10.12v3.121h-10.12V461.223z" fill="#00B9D2"></path>
				<path d="M151.082,452.646c-0.585,0-1.086-0.194-1.505-0.582c-0.419-0.388-0.628-0.855-0.628-1.403
					s0.209-1.017,0.628-1.408c0.418-0.391,0.917-0.586,1.496-0.586c0.591,0,1.094,0.194,1.51,0.582s0.623,0.855,0.623,1.403
					s-0.208,1.018-0.623,1.408C152.167,452.451,151.666,452.646,151.082,452.646z M149.097,468.656v-14.182h3.933v14.182H149.097z" fill="#00B9D2"></path>
				<path d="M156.168,468.656v-14.182h3.813v2.474h0.148c0.258-0.88,0.692-1.546,1.302-1.999
					c0.609-0.452,1.311-0.678,2.105-0.678c0.197,0,0.409,0.012,0.637,0.037c0.228,0.025,0.428,0.059,0.6,0.102v3.49
					c-0.185-0.056-0.44-0.104-0.767-0.148c-0.326-0.043-0.625-0.064-0.896-0.064c-0.579,0-1.094,0.125-1.546,0.374
					c-0.453,0.249-0.81,0.595-1.071,1.039s-0.392,0.954-0.392,1.533v8.023H156.168z" fill="#00B9D2"></path>
				<path d="M173.692,461.076c0-2.29,0.306-4.398,0.918-6.325c0.613-1.927,1.55-3.712,2.812-5.355h3.758
					c-0.48,0.609-0.926,1.353-1.339,2.229c-0.412,0.877-0.772,1.839-1.08,2.885c-0.308,1.047-0.548,2.128-0.72,3.246
					s-0.258,2.224-0.258,3.319c0,1.458,0.149,2.931,0.448,4.418c0.298,1.486,0.705,2.867,1.219,4.141
					c0.514,1.274,1.091,2.318,1.731,3.13h-3.758c-1.262-1.644-2.199-3.429-2.812-5.355
					C173.998,465.483,173.692,463.372,173.692,461.076z" fill="#00B9D2"></path>
				<path d="M190.33,468.914c-1.305,0-2.467-0.24-3.485-0.72c-1.019-0.48-1.827-1.142-2.424-1.985
					s-0.908-1.81-0.933-2.899h3.878c0.043,0.732,0.351,1.326,0.923,1.782s1.252,0.683,2.041,0.683c0.628,0,1.183-0.14,1.667-0.42
					c0.483-0.28,0.862-0.671,1.136-1.172c0.274-0.502,0.411-1.079,0.411-1.731c0-0.665-0.14-1.25-0.42-1.754
					c-0.28-0.504-0.667-0.898-1.159-1.182c-0.493-0.283-1.056-0.428-1.69-0.434c-0.554,0-1.091,0.114-1.611,0.342
					c-0.521,0.228-0.925,0.539-1.214,0.933l-3.555-0.637l0.896-9.972h11.56v3.269h-8.264l-0.489,4.736h0.111
					c0.332-0.467,0.834-0.855,1.505-1.163s1.422-0.462,2.253-0.462c1.139,0,2.154,0.268,3.047,0.803
					c0.892,0.536,1.597,1.27,2.114,2.202s0.772,2.005,0.766,3.218c0.006,1.274-0.288,2.405-0.881,3.393
					c-0.594,0.988-1.422,1.764-2.484,2.327C192.966,468.633,191.733,468.914,190.33,468.914z" fill="#00B9D2"></path>
				<path d="M207.762,454.474v2.955h-8.541v-2.955H207.762z M201.16,451.076h3.934v13.222
					c0,0.363,0.055,0.645,0.166,0.845c0.111,0.2,0.266,0.34,0.466,0.42c0.2,0.08,0.432,0.12,0.697,0.12
					c0.185,0,0.37-0.017,0.554-0.051c0.185-0.034,0.326-0.06,0.425-0.078l0.619,2.927c-0.197,0.062-0.474,0.134-0.831,0.217
					s-0.791,0.134-1.302,0.152c-0.948,0.037-1.777-0.089-2.488-0.378c-0.711-0.29-1.264-0.739-1.657-1.348
					c-0.394-0.609-0.588-1.379-0.582-2.308V451.076z" fill="#00B9D2"></path>
				<path d="M214.547,460.457v8.199h-3.933v-18.909h3.822v7.229h0.166c0.32-0.837,0.837-1.494,1.551-1.971
					c0.714-0.477,1.609-0.716,2.687-0.716c0.984,0,1.845,0.214,2.581,0.642c0.735,0.428,1.308,1.04,1.717,1.837
					c0.409,0.797,0.611,1.75,0.604,2.857v9.03h-3.933v-8.328c0.006-0.874-0.214-1.554-0.66-2.041s-1.069-0.729-1.87-0.729
					c-0.536,0-1.008,0.114-1.417,0.342c-0.409,0.228-0.729,0.559-0.96,0.993C214.672,459.326,214.553,459.848,214.547,460.457z" fill="#00B9D2"></path>
				<path d="M245.487,455.859c-0.129-0.449-0.311-0.848-0.544-1.196c-0.234-0.348-0.519-0.643-0.854-0.886
					c-0.336-0.243-0.717-0.429-1.145-0.559s-0.9-0.194-1.417-0.194c-0.966,0-1.814,0.24-2.543,0.72s-1.297,1.177-1.704,2.091
					s-0.609,2.03-0.609,3.347c0,1.317,0.2,2.438,0.6,3.361c0.4,0.923,0.966,1.626,1.699,2.11c0.732,0.483,1.597,0.725,2.594,0.725
					c0.905,0,1.679-0.162,2.322-0.484c0.643-0.323,1.135-0.78,1.477-1.371c0.342-0.591,0.513-1.29,0.513-2.096l0.812,0.12h-4.875
					v-3.01h7.913v2.382c0,1.662-0.351,3.088-1.053,4.28c-0.702,1.191-1.668,2.108-2.899,2.751c-1.231,0.644-2.641,0.965-4.229,0.965
					c-1.772,0-3.33-0.392-4.672-1.177c-1.342-0.785-2.387-1.902-3.134-3.352c-0.748-1.45-1.122-3.172-1.122-5.166
					c0-1.533,0.223-2.9,0.669-4.104s1.072-2.224,1.879-3.061c0.806-0.837,1.745-1.474,2.816-1.911
					c1.071-0.437,2.231-0.655,3.481-0.655c1.071,0,2.068,0.155,2.992,0.466c0.923,0.311,1.743,0.75,2.46,1.315
					c0.717,0.566,1.303,1.239,1.759,2.018s0.748,1.636,0.877,2.571H245.487z" fill="#00B9D2"></path>
				<path d="M259.115,468.933c-1.459,0-2.713-0.297-3.763-0.891c-1.049-0.594-1.857-1.438-2.423-2.53
					c-0.566-1.092-0.85-2.387-0.85-3.882c0-1.458,0.283-2.739,0.85-3.841c0.566-1.102,1.365-1.96,2.396-2.576
					c1.031-0.615,2.242-0.923,3.633-0.923c0.936,0,1.808,0.149,2.618,0.448c0.81,0.298,1.517,0.746,2.124,1.343
					s1.079,1.347,1.417,2.248c0.338,0.902,0.508,1.956,0.508,3.163v1.08h-11.975v-2.438h8.272c0-0.566-0.123-1.068-0.369-1.505
					s-0.586-0.78-1.021-1.03c-0.434-0.249-0.937-0.374-1.509-0.374c-0.597,0-1.125,0.137-1.583,0.411s-0.817,0.64-1.076,1.099
					s-0.391,0.968-0.397,1.528v2.317c0,0.702,0.131,1.308,0.393,1.819c0.261,0.511,0.632,0.905,1.112,1.182
					c0.48,0.277,1.049,0.416,1.708,0.416c0.437,0,0.837-0.062,1.2-0.185c0.363-0.123,0.674-0.308,0.933-0.554
					c0.259-0.246,0.456-0.547,0.591-0.905l3.638,0.24c-0.185,0.874-0.562,1.636-1.131,2.285s-1.302,1.154-2.197,1.514
					C261.317,468.753,260.284,468.933,259.115,468.933z" fill="#00B9D2"></path>
				<path d="M272.124,460.457v8.199h-3.933v-14.182h3.749v2.502h0.166c0.314-0.825,0.84-1.479,1.579-1.962
					c0.739-0.483,1.634-0.725,2.687-0.725c0.985,0,1.843,0.216,2.576,0.646c0.732,0.431,1.302,1.045,1.708,1.842
					c0.406,0.797,0.609,1.747,0.609,2.849v9.03h-3.933v-8.328c0.006-0.868-0.216-1.546-0.665-2.036
					c-0.449-0.49-1.068-0.734-1.856-0.734c-0.529,0-0.996,0.114-1.398,0.342c-0.403,0.228-0.717,0.559-0.942,0.993
					C272.246,459.326,272.13,459.848,272.124,460.457z" fill="#00B9D2"></path>
				<path d="M290.986,461.076c0,2.296-0.306,4.407-0.918,6.333c-0.613,1.927-1.55,3.712-2.812,5.355h-3.758
					c0.48-0.609,0.926-1.354,1.339-2.234c0.412-0.88,0.772-1.842,1.08-2.886c0.308-1.043,0.548-2.125,0.72-3.245
					s0.259-2.228,0.259-3.324c0-1.459-0.149-2.932-0.448-4.418c-0.298-1.487-0.705-2.865-1.219-4.137
					c-0.514-1.271-1.091-2.312-1.731-3.125h3.758c1.262,1.643,2.199,3.428,2.812,5.355
					C290.68,456.678,290.986,458.786,290.986,461.076z" fill="#00B9D2"></path>
			</g>
		</g>
	</g>
	<g id="MTEXT_00000135658492820425392790000006909287716515953589_">
		<g>
			<g>
				<path d="M354.688,468.656h-4.284l6.528-18.909h5.152l6.519,18.909h-4.284l-4.736-14.588h-0.148L354.688,468.656z
					 M354.419,461.223h10.12v3.121h-10.12V461.223z" fill="#00B9D2"></path>
				<path d="M370.799,473.974v-19.5h3.877v2.382h0.176c0.172-0.381,0.423-0.771,0.752-1.168
					c0.329-0.397,0.76-0.729,1.292-0.997c0.532-0.268,1.196-0.402,1.99-0.402c1.034,0,1.988,0.27,2.862,0.808
					s1.572,1.348,2.096,2.428c0.523,1.08,0.785,2.433,0.785,4.058c0,1.582-0.254,2.916-0.762,4.002s-1.197,1.908-2.068,2.465
					c-0.871,0.558-1.845,0.836-2.922,0.836c-0.763,0-1.411-0.126-1.943-0.379c-0.533-0.252-0.968-0.571-1.307-0.956
					c-0.338-0.384-0.597-0.774-0.775-1.168h-0.12v7.59H370.799z M374.649,461.565c0,0.843,0.117,1.579,0.351,2.207
					s0.573,1.116,1.016,1.463c0.443,0.348,0.982,0.522,1.616,0.522c0.64,0,1.182-0.177,1.625-0.531
					c0.443-0.354,0.78-0.846,1.011-1.477s0.346-1.359,0.346-2.184c0-0.819-0.114-1.539-0.342-2.161s-0.563-1.108-1.006-1.459
					c-0.443-0.351-0.988-0.526-1.634-0.526c-0.64,0-1.18,0.169-1.62,0.508c-0.44,0.338-0.777,0.818-1.011,1.44
					C374.766,459.989,374.649,460.722,374.649,461.565z" fill="#00B9D2"></path>
				<path d="M387.243,473.974v-19.5h3.877v2.382h0.176c0.172-0.381,0.423-0.771,0.752-1.168
					c0.329-0.397,0.76-0.729,1.292-0.997c0.532-0.268,1.196-0.402,1.99-0.402c1.034,0,1.988,0.27,2.862,0.808
					s1.572,1.348,2.096,2.428c0.523,1.08,0.785,2.433,0.785,4.058c0,1.582-0.254,2.916-0.762,4.002s-1.197,1.908-2.068,2.465
					c-0.871,0.558-1.845,0.836-2.922,0.836c-0.763,0-1.411-0.126-1.943-0.379c-0.533-0.252-0.968-0.571-1.307-0.956
					c-0.338-0.384-0.597-0.774-0.775-1.168h-0.12v7.59H387.243z M391.093,461.565c0,0.843,0.117,1.579,0.351,2.207
					s0.573,1.116,1.016,1.463c0.443,0.348,0.982,0.522,1.616,0.522c0.64,0,1.182-0.177,1.625-0.531
					c0.443-0.354,0.78-0.846,1.011-1.477s0.346-1.359,0.346-2.184c0-0.819-0.114-1.539-0.342-2.161s-0.563-1.108-1.006-1.459
					c-0.443-0.351-0.988-0.526-1.634-0.526c-0.64,0-1.18,0.169-1.62,0.508c-0.44,0.338-0.777,0.818-1.011,1.44
					C391.209,459.989,391.093,460.722,391.093,461.565z" fill="#00B9D2"></path>
				<path d="M407.619,449.747v18.909h-3.933v-18.909H407.619z" fill="#00B9D2"></path>
				<path d="M417.221,468.933c-1.459,0-2.713-0.297-3.763-0.891c-1.049-0.594-1.857-1.438-2.423-2.53
					c-0.566-1.092-0.85-2.387-0.85-3.882c0-1.458,0.283-2.739,0.85-3.841c0.566-1.102,1.365-1.96,2.396-2.576
					c1.031-0.615,2.242-0.923,3.633-0.923c0.936,0,1.808,0.149,2.618,0.448c0.81,0.298,1.517,0.746,2.124,1.343
					s1.079,1.347,1.417,2.248c0.338,0.902,0.508,1.956,0.508,3.163v1.08h-11.975v-2.438h8.272c0-0.566-0.123-1.068-0.369-1.505
					s-0.586-0.78-1.021-1.03c-0.434-0.249-0.937-0.374-1.509-0.374c-0.597,0-1.125,0.137-1.583,0.411s-0.817,0.64-1.076,1.099
					s-0.391,0.968-0.397,1.528v2.317c0,0.702,0.131,1.308,0.393,1.819c0.261,0.511,0.632,0.905,1.112,1.182
					c0.48,0.277,1.049,0.416,1.708,0.416c0.437,0,0.837-0.062,1.2-0.185c0.363-0.123,0.674-0.308,0.933-0.554
					c0.259-0.246,0.456-0.547,0.591-0.905l3.638,0.24c-0.185,0.874-0.562,1.636-1.131,2.285s-1.302,1.154-2.197,1.514
					C419.423,468.753,418.391,468.933,417.221,468.933z" fill="#00B9D2"></path>
				<path d="M434.311,452.646c-0.585,0-1.086-0.194-1.505-0.582c-0.419-0.388-0.628-0.855-0.628-1.403
					s0.209-1.017,0.628-1.408c0.418-0.391,0.917-0.586,1.496-0.586c0.591,0,1.094,0.194,1.51,0.582s0.623,0.855,0.623,1.403
					s-0.208,1.018-0.623,1.408C435.396,452.451,434.896,452.646,434.311,452.646z M432.326,468.656v-14.182h3.933v14.182H432.326z" fill="#00B9D2"></path>
				<path d="M439.472,468.656v-18.909h7.46c1.434,0,2.656,0.272,3.666,0.817c1.01,0.544,1.78,1.299,2.313,2.262
					c0.532,0.963,0.799,2.073,0.799,3.329s-0.271,2.364-0.812,3.324c-0.542,0.96-1.325,1.708-2.35,2.244
					c-1.025,0.536-2.264,0.803-3.716,0.803h-4.755v-3.204h4.109c0.769,0,1.405-0.134,1.906-0.402
					c0.502-0.268,0.877-0.64,1.126-1.117c0.25-0.477,0.374-1.026,0.374-1.648c0-0.628-0.125-1.177-0.374-1.648
					c-0.249-0.471-0.626-0.837-1.131-1.099c-0.505-0.262-1.145-0.393-1.92-0.393h-2.696v15.641H439.472z" fill="#00B9D2"></path>
				<path d="M459.905,468.923c-0.905,0-1.711-0.158-2.419-0.475c-0.708-0.317-1.267-0.788-1.676-1.413
					c-0.41-0.625-0.614-1.405-0.614-2.34c0-0.788,0.145-1.45,0.434-1.985c0.289-0.536,0.683-0.966,1.182-1.293
					c0.499-0.326,1.066-0.572,1.704-0.738c0.637-0.167,1.307-0.283,2.008-0.351c0.825-0.086,1.489-0.167,1.994-0.245
					s0.871-0.192,1.099-0.346s0.342-0.382,0.342-0.683v-0.056c0-0.584-0.183-1.037-0.549-1.357c-0.366-0.32-0.885-0.48-1.556-0.48
					c-0.708,0-1.271,0.156-1.69,0.466c-0.418,0.311-0.695,0.7-0.831,1.168l-3.638-0.295c0.185-0.862,0.548-1.608,1.089-2.239
					c0.542-0.631,1.242-1.117,2.101-1.459c0.859-0.342,1.854-0.513,2.987-0.513c0.788,0,1.543,0.093,2.267,0.277
					c0.723,0.185,1.366,0.471,1.93,0.858c0.563,0.388,1.008,0.885,1.334,1.491c0.326,0.606,0.489,1.331,0.489,2.174v9.565h-3.73
					v-1.967h-0.111c-0.228,0.443-0.533,0.833-0.914,1.168c-0.382,0.336-0.84,0.597-1.376,0.785
					C461.225,468.83,460.606,468.923,459.905,468.923z M461.031,466.209c0.578,0,1.089-0.115,1.533-0.346
					c0.443-0.231,0.791-0.543,1.043-0.937s0.379-0.84,0.379-1.339v-1.505c-0.124,0.08-0.291,0.152-0.503,0.217
					s-0.451,0.123-0.715,0.175c-0.265,0.053-0.53,0.099-0.794,0.139s-0.504,0.076-0.72,0.106c-0.461,0.068-0.865,0.176-1.209,0.323
					c-0.345,0.148-0.612,0.346-0.803,0.596c-0.191,0.249-0.286,0.559-0.286,0.928c0,0.536,0.195,0.943,0.586,1.224
					C459.931,466.069,460.428,466.209,461.031,466.209z" fill="#00B9D2"></path>
				<path d="M476.173,468.887c-1.077,0-2.051-0.278-2.922-0.836c-0.871-0.557-1.56-1.378-2.068-2.465
					s-0.762-2.42-0.762-4.002c0-1.625,0.261-2.978,0.785-4.058c0.523-1.08,1.22-1.89,2.091-2.428s1.827-0.808,2.867-0.808
					c0.794,0,1.458,0.134,1.99,0.402s0.963,0.6,1.292,0.997c0.33,0.397,0.58,0.787,0.752,1.168h0.12v-7.109h3.924v18.909h-3.878
					v-2.271h-0.167c-0.185,0.394-0.444,0.784-0.78,1.168c-0.336,0.385-0.77,0.704-1.302,0.956
					C477.584,468.76,476.936,468.887,476.173,468.887z M477.419,465.757c0.634,0,1.171-0.174,1.611-0.522
					c0.44-0.348,0.779-0.835,1.016-1.463c0.237-0.628,0.355-1.363,0.355-2.207s-0.117-1.576-0.351-2.198
					c-0.234-0.622-0.572-1.102-1.016-1.44s-0.982-0.508-1.616-0.508c-0.646,0-1.191,0.175-1.634,0.526
					c-0.443,0.351-0.779,0.837-1.006,1.459c-0.228,0.622-0.342,1.342-0.342,2.161c0,0.825,0.116,1.553,0.346,2.184
					c0.231,0.631,0.566,1.124,1.006,1.477C476.229,465.58,476.773,465.757,477.419,465.757z" fill="#00B9D2"></path>
				<path d="M494.361,461.076c0-2.29,0.306-4.398,0.918-6.325c0.613-1.927,1.55-3.712,2.812-5.355h3.758
					c-0.48,0.609-0.926,1.353-1.339,2.229c-0.412,0.877-0.772,1.839-1.08,2.885c-0.308,1.047-0.548,2.128-0.72,3.246
					s-0.258,2.224-0.258,3.319c0,1.458,0.149,2.931,0.448,4.418c0.298,1.486,0.705,2.867,1.219,4.141
					c0.514,1.274,1.091,2.318,1.731,3.13h-3.758c-1.262-1.644-2.199-3.429-2.812-5.355
					C494.667,465.483,494.361,463.372,494.361,461.076z" fill="#00B9D2"></path>
				<path d="M510.935,449.488c0.972,0,1.909,0.163,2.811,0.489s1.708,0.846,2.419,1.561
					c0.711,0.714,1.274,1.66,1.689,2.839s0.626,2.624,0.632,4.335c0,1.606-0.18,3.039-0.54,4.298s-0.875,2.328-1.546,3.208
					s-1.48,1.55-2.428,2.008c-0.948,0.458-2.007,0.688-3.176,0.688c-1.262,0-2.376-0.245-3.342-0.734s-1.744-1.157-2.332-2.003
					s-0.943-1.799-1.066-2.857h3.942c0.154,0.689,0.477,1.223,0.97,1.602c0.492,0.379,1.102,0.568,1.828,0.568
					c1.231,0,2.167-0.537,2.807-1.611s0.963-2.547,0.97-4.418h-0.129c-0.283,0.554-0.665,1.029-1.145,1.426
					c-0.48,0.397-1.029,0.703-1.648,0.918c-0.619,0.216-1.276,0.323-1.971,0.323c-1.114,0-2.108-0.261-2.982-0.785
					c-0.874-0.523-1.563-1.243-2.068-2.161c-0.505-0.917-0.757-1.963-0.757-3.139c-0.006-1.268,0.286-2.397,0.877-3.388
					c0.591-0.991,1.417-1.769,2.479-2.332C508.289,449.761,509.525,449.482,510.935,449.488z M510.962,452.627
					c-0.622,0-1.174,0.147-1.657,0.443c-0.483,0.296-0.865,0.693-1.145,1.191c-0.28,0.499-0.417,1.056-0.411,1.671
					c0,0.622,0.137,1.181,0.411,1.676c0.274,0.496,0.649,0.89,1.126,1.182s1.023,0.438,1.639,0.438c0.461,0,0.889-0.086,1.283-0.259
					c0.394-0.172,0.737-0.411,1.029-0.715s0.522-0.657,0.688-1.057s0.25-0.825,0.25-1.274c-0.006-0.597-0.148-1.145-0.425-1.643
					c-0.277-0.499-0.659-0.899-1.145-1.201C512.119,452.778,511.571,452.627,510.962,452.627z" fill="#00B9D2"></path>
				<path d="M528.837,454.474v2.955h-8.541v-2.955H528.837z M522.235,451.076h3.934v13.222
					c0,0.363,0.055,0.645,0.166,0.845c0.111,0.2,0.266,0.34,0.466,0.42c0.2,0.08,0.432,0.12,0.697,0.12
					c0.185,0,0.37-0.017,0.554-0.051c0.185-0.034,0.326-0.06,0.425-0.078l0.619,2.927c-0.197,0.062-0.474,0.134-0.831,0.217
					s-0.791,0.134-1.302,0.152c-0.948,0.037-1.777-0.089-2.488-0.378c-0.711-0.29-1.264-0.739-1.657-1.348
					c-0.394-0.609-0.588-1.379-0.582-2.308V451.076z" fill="#00B9D2"></path>
				<path d="M535.623,460.457v8.199h-3.933v-18.909h3.822v7.229h0.166c0.32-0.837,0.837-1.494,1.551-1.971
					c0.714-0.477,1.609-0.716,2.687-0.716c0.984,0,1.845,0.214,2.581,0.642c0.735,0.428,1.308,1.04,1.717,1.837
					c0.409,0.797,0.611,1.75,0.604,2.857v9.03h-3.933v-8.328c0.006-0.874-0.214-1.554-0.66-2.041s-1.069-0.729-1.87-0.729
					c-0.536,0-1.008,0.114-1.417,0.342c-0.409,0.228-0.729,0.559-0.96,0.993C535.748,459.326,535.629,459.848,535.623,460.457z" fill="#00B9D2"></path>
				<path d="M566.562,455.859c-0.129-0.449-0.311-0.848-0.544-1.196c-0.234-0.348-0.519-0.643-0.854-0.886
					c-0.336-0.243-0.717-0.429-1.145-0.559s-0.9-0.194-1.417-0.194c-0.966,0-1.814,0.24-2.543,0.72s-1.297,1.177-1.704,2.091
					s-0.609,2.03-0.609,3.347c0,1.317,0.2,2.438,0.6,3.361c0.4,0.923,0.966,1.626,1.699,2.11c0.732,0.483,1.597,0.725,2.594,0.725
					c0.905,0,1.679-0.162,2.322-0.484c0.643-0.323,1.135-0.78,1.477-1.371c0.342-0.591,0.513-1.29,0.513-2.096l0.812,0.12h-4.875
					v-3.01h7.913v2.382c0,1.662-0.351,3.088-1.053,4.28c-0.702,1.191-1.668,2.108-2.899,2.751c-1.231,0.644-2.641,0.965-4.229,0.965
					c-1.772,0-3.33-0.392-4.672-1.177c-1.342-0.785-2.387-1.902-3.134-3.352c-0.748-1.45-1.122-3.172-1.122-5.166
					c0-1.533,0.223-2.9,0.669-4.104s1.072-2.224,1.879-3.061c0.806-0.837,1.745-1.474,2.816-1.911
					c1.071-0.437,2.231-0.655,3.481-0.655c1.071,0,2.068,0.155,2.992,0.466c0.923,0.311,1.743,0.75,2.46,1.315
					c0.717,0.566,1.303,1.239,1.759,2.018s0.748,1.636,0.877,2.571H566.562z" fill="#00B9D2"></path>
				<path d="M580.19,468.933c-1.459,0-2.713-0.297-3.763-0.891c-1.049-0.594-1.857-1.438-2.423-2.53
					c-0.566-1.092-0.85-2.387-0.85-3.882c0-1.458,0.283-2.739,0.85-3.841c0.566-1.102,1.365-1.96,2.396-2.576
					c1.031-0.615,2.242-0.923,3.633-0.923c0.936,0,1.808,0.149,2.618,0.448c0.81,0.298,1.517,0.746,2.124,1.343
					s1.079,1.347,1.417,2.248c0.338,0.902,0.508,1.956,0.508,3.163v1.08h-11.975v-2.438h8.272c0-0.566-0.123-1.068-0.369-1.505
					s-0.586-0.78-1.021-1.03c-0.434-0.249-0.937-0.374-1.509-0.374c-0.597,0-1.125,0.137-1.583,0.411s-0.817,0.64-1.076,1.099
					s-0.391,0.968-0.397,1.528v2.317c0,0.702,0.131,1.308,0.393,1.819c0.261,0.511,0.632,0.905,1.112,1.182
					c0.48,0.277,1.049,0.416,1.708,0.416c0.437,0,0.837-0.062,1.2-0.185c0.363-0.123,0.674-0.308,0.933-0.554
					c0.259-0.246,0.456-0.547,0.591-0.905l3.638,0.24c-0.185,0.874-0.562,1.636-1.131,2.285s-1.302,1.154-2.197,1.514
					C582.392,468.753,581.359,468.933,580.19,468.933z" fill="#00B9D2"></path>
				<path d="M593.199,460.457v8.199h-3.933v-14.182h3.749v2.502h0.166c0.314-0.825,0.84-1.479,1.579-1.962
					c0.739-0.483,1.634-0.725,2.687-0.725c0.985,0,1.843,0.216,2.576,0.646c0.732,0.431,1.302,1.045,1.708,1.842
					c0.406,0.797,0.609,1.747,0.609,2.849v9.03h-3.933v-8.328c0.006-0.868-0.216-1.546-0.665-2.036
					c-0.449-0.49-1.068-0.734-1.856-0.734c-0.529,0-0.996,0.114-1.398,0.342c-0.403,0.228-0.717,0.559-0.942,0.993
					C593.321,459.326,593.205,459.848,593.199,460.457z" fill="#00B9D2"></path>
				<path d="M612.062,461.076c0,2.296-0.306,4.407-0.918,6.333c-0.613,1.927-1.55,3.712-2.812,5.355h-3.758
					c0.48-0.609,0.926-1.354,1.339-2.234c0.412-0.88,0.772-1.842,1.08-2.886c0.308-1.043,0.548-2.125,0.72-3.245
					s0.259-2.228,0.259-3.324c0-1.459-0.149-2.932-0.448-4.418c-0.298-1.487-0.705-2.865-1.219-4.137
					c-0.514-1.271-1.091-2.312-1.731-3.125h3.758c1.262,1.643,2.199,3.428,2.812,5.355
					C611.756,456.678,612.062,458.786,612.062,461.076z" fill="#00B9D2"></path>
			</g>
		</g>
	</g>
	<g id="MTEXT_00000044165060073261913170000010881865085429653421_">
		<g>
			<g>
				<path d="M713.315,452.646c-0.585,0-1.086-0.194-1.505-0.582c-0.419-0.388-0.628-0.855-0.628-1.403
					s0.209-1.017,0.628-1.408c0.418-0.391,0.917-0.586,1.496-0.586c0.591,0,1.094,0.194,1.51,0.582s0.623,0.855,0.623,1.403
					s-0.208,1.018-0.623,1.408C714.4,452.451,713.899,452.646,713.315,452.646z M711.33,468.656v-14.182h3.933v14.182H711.33z" fill="#00B9D2"></path>
				<path d="M718.476,468.656v-18.909h7.46c1.434,0,2.656,0.272,3.666,0.817c1.01,0.544,1.78,1.299,2.313,2.262
					c0.532,0.963,0.799,2.073,0.799,3.329s-0.271,2.364-0.812,3.324c-0.542,0.96-1.325,1.708-2.35,2.244
					c-1.025,0.536-2.264,0.803-3.716,0.803h-4.755v-3.204h4.109c0.769,0,1.405-0.134,1.906-0.402
					c0.502-0.268,0.877-0.64,1.126-1.117c0.25-0.477,0.374-1.026,0.374-1.648c0-0.628-0.125-1.177-0.374-1.648
					c-0.249-0.471-0.626-0.837-1.131-1.099c-0.505-0.262-1.145-0.393-1.92-0.393h-2.696v15.641H718.476z" fill="#00B9D2"></path>
				<path d="M738.908,468.923c-0.905,0-1.711-0.158-2.419-0.475c-0.708-0.317-1.267-0.788-1.676-1.413
					c-0.41-0.625-0.614-1.405-0.614-2.34c0-0.788,0.145-1.45,0.434-1.985c0.289-0.536,0.683-0.966,1.182-1.293
					c0.499-0.326,1.066-0.572,1.704-0.738c0.637-0.167,1.307-0.283,2.008-0.351c0.825-0.086,1.489-0.167,1.994-0.245
					s0.871-0.192,1.099-0.346s0.342-0.382,0.342-0.683v-0.056c0-0.584-0.183-1.037-0.549-1.357c-0.366-0.32-0.885-0.48-1.556-0.48
					c-0.708,0-1.271,0.156-1.69,0.466c-0.418,0.311-0.695,0.7-0.831,1.168l-3.638-0.295c0.185-0.862,0.548-1.608,1.089-2.239
					c0.542-0.631,1.242-1.117,2.101-1.459c0.859-0.342,1.854-0.513,2.987-0.513c0.788,0,1.543,0.093,2.267,0.277
					c0.723,0.185,1.366,0.471,1.93,0.858c0.563,0.388,1.008,0.885,1.334,1.491c0.326,0.606,0.489,1.331,0.489,2.174v9.565h-3.73
					v-1.967h-0.111c-0.228,0.443-0.533,0.833-0.914,1.168c-0.382,0.336-0.84,0.597-1.376,0.785
					C740.229,468.83,739.61,468.923,738.908,468.923z M740.035,466.209c0.578,0,1.089-0.115,1.533-0.346
					c0.443-0.231,0.791-0.543,1.043-0.937s0.379-0.84,0.379-1.339v-1.505c-0.124,0.08-0.291,0.152-0.503,0.217
					s-0.451,0.123-0.715,0.175c-0.265,0.053-0.53,0.099-0.794,0.139s-0.504,0.076-0.72,0.106c-0.461,0.068-0.865,0.176-1.209,0.323
					c-0.345,0.148-0.612,0.346-0.803,0.596c-0.191,0.249-0.286,0.559-0.286,0.928c0,0.536,0.195,0.943,0.586,1.224
					C738.934,466.069,739.431,466.209,740.035,466.209z" fill="#00B9D2"></path>
				<path d="M755.176,468.887c-1.077,0-2.051-0.278-2.922-0.836c-0.871-0.557-1.56-1.378-2.068-2.465
					s-0.762-2.42-0.762-4.002c0-1.625,0.261-2.978,0.785-4.058c0.523-1.08,1.22-1.89,2.091-2.428s1.827-0.808,2.867-0.808
					c0.794,0,1.458,0.134,1.99,0.402s0.963,0.6,1.292,0.997c0.33,0.397,0.58,0.787,0.752,1.168h0.12v-7.109h3.924v18.909h-3.878
					v-2.271h-0.167c-0.185,0.394-0.444,0.784-0.78,1.168c-0.336,0.385-0.77,0.704-1.302,0.956
					C756.587,468.76,755.939,468.887,755.176,468.887z M756.423,465.757c0.634,0,1.171-0.174,1.611-0.522
					c0.44-0.348,0.779-0.835,1.016-1.463c0.237-0.628,0.355-1.363,0.355-2.207s-0.117-1.576-0.351-2.198
					c-0.234-0.622-0.572-1.102-1.016-1.44s-0.982-0.508-1.616-0.508c-0.646,0-1.191,0.175-1.634,0.526
					c-0.443,0.351-0.779,0.837-1.006,1.459c-0.228,0.622-0.342,1.342-0.342,2.161c0,0.825,0.116,1.553,0.346,2.184
					c0.231,0.631,0.566,1.124,1.006,1.477C755.233,465.58,755.776,465.757,756.423,465.757z" fill="#00B9D2"></path>
				<path d="M772.571,468.656v-18.909h7.46c1.434,0,2.656,0.272,3.666,0.817c1.01,0.544,1.78,1.299,2.313,2.262
					c0.532,0.963,0.799,2.073,0.799,3.329s-0.271,2.364-0.812,3.324c-0.542,0.96-1.325,1.708-2.35,2.244
					c-1.025,0.536-2.264,0.803-3.716,0.803h-4.755v-3.204h4.109c0.769,0,1.405-0.134,1.906-0.402
					c0.502-0.268,0.877-0.64,1.126-1.117c0.25-0.477,0.374-1.026,0.374-1.648c0-0.628-0.125-1.177-0.374-1.648
					c-0.249-0.471-0.626-0.837-1.131-1.099c-0.505-0.262-1.145-0.393-1.92-0.393h-2.696v15.641H772.571z" fill="#00B9D2"></path>
				<path d="M789.338,468.656v-14.182h3.813v2.474h0.148c0.258-0.88,0.692-1.546,1.302-1.999
					c0.609-0.452,1.311-0.678,2.105-0.678c0.197,0,0.409,0.012,0.637,0.037c0.228,0.025,0.428,0.059,0.6,0.102v3.49
					c-0.185-0.056-0.44-0.104-0.767-0.148c-0.326-0.043-0.625-0.064-0.896-0.064c-0.579,0-1.094,0.125-1.546,0.374
					c-0.453,0.249-0.81,0.595-1.071,1.039s-0.392,0.954-0.392,1.533v8.023H789.338z" fill="#00B9D2"></path>
				<path d="M805.708,468.933c-1.434,0-2.673-0.306-3.716-0.918c-1.043-0.612-1.849-1.468-2.415-2.567
					c-0.566-1.099-0.85-2.374-0.85-3.827c0-1.465,0.283-2.747,0.85-3.845c0.566-1.099,1.371-1.955,2.415-2.567
					c1.043-0.612,2.282-0.919,3.716-0.919c1.435,0,2.673,0.307,3.716,0.919c1.043,0.612,1.848,1.468,2.415,2.567
					c0.566,1.099,0.85,2.38,0.85,3.845c0,1.453-0.283,2.729-0.85,3.827s-1.371,1.955-2.415,2.567
					C808.381,468.626,807.142,468.933,805.708,468.933z M805.726,465.886c0.652,0,1.197-0.186,1.634-0.559
					c0.437-0.372,0.768-0.882,0.993-1.528c0.225-0.646,0.337-1.382,0.337-2.207c0-0.825-0.112-1.561-0.337-2.207
					c-0.225-0.646-0.556-1.157-0.993-1.533c-0.437-0.375-0.982-0.563-1.634-0.563c-0.659,0-1.211,0.188-1.657,0.563
					c-0.446,0.375-0.782,0.887-1.006,1.533c-0.225,0.646-0.337,1.382-0.337,2.207c0,0.825,0.112,1.56,0.337,2.207
					c0.225,0.646,0.56,1.156,1.006,1.528C804.515,465.7,805.067,465.886,805.726,465.886z" fill="#00B9D2"></path>
				<path d="M830.12,459.331v3.121h-8.624v-3.121H830.12z" fill="#00B9D2"></path>
				<path d="M847.69,449.747v18.909h-3.998v-15.114h-0.111l-4.33,2.714v-3.545l4.681-2.964H847.69z" fill="#00B9D2"></path>
				<path d="M852.186,468.656v-2.881l6.731-6.232c0.572-0.554,1.054-1.053,1.445-1.496
					c0.391-0.443,0.688-0.878,0.891-1.306s0.305-0.891,0.305-1.39c0-0.554-0.126-1.033-0.379-1.436
					c-0.252-0.403-0.597-0.714-1.034-0.933c-0.438-0.218-0.933-0.328-1.487-0.328c-0.579,0-1.083,0.117-1.514,0.351
					s-0.763,0.569-0.997,1.006s-0.351,0.958-0.351,1.561h-3.794c0-1.237,0.28-2.312,0.84-3.222c0.56-0.911,1.345-1.616,2.354-2.115
					c1.01-0.499,2.173-0.748,3.49-0.748c1.354,0,2.534,0.238,3.541,0.715c1.006,0.477,1.79,1.137,2.35,1.98s0.84,1.81,0.84,2.899
					c0,0.714-0.14,1.418-0.42,2.114s-0.777,1.466-1.491,2.313c-0.714,0.846-1.72,1.86-3.019,3.042l-2.761,2.705v0.129h7.94v3.269
					H852.186z" fill="#00B9D2"></path>
				<path d="M870.901,468.896c-0.609,0-1.131-0.217-1.565-0.651c-0.434-0.434-0.651-0.956-0.651-1.565
					c0-0.603,0.217-1.12,0.651-1.551s0.956-0.646,1.565-0.646c0.591,0,1.108,0.216,1.551,0.646c0.443,0.431,0.665,0.948,0.665,1.551
					c0,0.406-0.103,0.777-0.309,1.113c-0.207,0.335-0.476,0.604-0.808,0.803C871.667,468.796,871.301,468.896,870.901,468.896z" fill="#00B9D2"></path>
				<path d="M882.793,449.488c0.972,0,1.909,0.163,2.811,0.489s1.708,0.846,2.419,1.561
					c0.711,0.714,1.274,1.66,1.689,2.839s0.626,2.624,0.632,4.335c0,1.606-0.18,3.039-0.54,4.298s-0.875,2.328-1.546,3.208
					s-1.48,1.55-2.428,2.008c-0.948,0.458-2.007,0.688-3.176,0.688c-1.262,0-2.376-0.245-3.342-0.734s-1.744-1.157-2.332-2.003
					s-0.943-1.799-1.066-2.857h3.942c0.154,0.689,0.477,1.223,0.97,1.602c0.492,0.379,1.102,0.568,1.828,0.568
					c1.231,0,2.167-0.537,2.807-1.611s0.963-2.547,0.97-4.418h-0.129c-0.283,0.554-0.665,1.029-1.145,1.426
					c-0.48,0.397-1.029,0.703-1.648,0.918c-0.619,0.216-1.276,0.323-1.971,0.323c-1.114,0-2.108-0.261-2.982-0.785
					c-0.874-0.523-1.563-1.243-2.068-2.161c-0.505-0.917-0.757-1.963-0.757-3.139c-0.006-1.268,0.286-2.397,0.877-3.388
					c0.591-0.991,1.417-1.769,2.479-2.332C880.147,449.761,881.383,449.482,882.793,449.488z M882.82,452.627
					c-0.622,0-1.174,0.147-1.657,0.443c-0.483,0.296-0.865,0.693-1.145,1.191c-0.28,0.499-0.417,1.056-0.411,1.671
					c0,0.622,0.137,1.181,0.411,1.676c0.274,0.496,0.649,0.89,1.126,1.182s1.023,0.438,1.639,0.438c0.461,0,0.889-0.086,1.283-0.259
					c0.394-0.172,0.737-0.411,1.029-0.715s0.522-0.657,0.688-1.057s0.25-0.825,0.25-1.274c-0.006-0.597-0.148-1.145-0.425-1.643
					c-0.277-0.499-0.659-0.899-1.145-1.201C883.978,452.778,883.43,452.627,882.82,452.627z" fill="#00B9D2"></path>
				<path d="M896.448,449.747v1.995c0,0.566-0.109,1.143-0.328,1.731c-0.219,0.588-0.509,1.142-0.873,1.662
					s-0.76,0.961-1.191,1.325l-1.736-1.025c0.308-0.486,0.58-1.025,0.817-1.616s0.355-1.277,0.355-2.059v-2.013H896.448z
					 M901.083,449.747v1.995c0,0.566-0.109,1.143-0.328,1.731c-0.218,0.588-0.509,1.142-0.873,1.662s-0.76,0.961-1.191,1.325
					l-1.736-1.025c0.308-0.486,0.58-1.025,0.817-1.616c0.237-0.591,0.355-1.277,0.355-2.059v-2.013H901.083z" fill="#00B9D2"></path>
				<path d="M747.495,489.875c0-2.29,0.306-4.398,0.918-6.325c0.613-1.927,1.55-3.712,2.812-5.355h3.758
					c-0.48,0.609-0.926,1.353-1.339,2.229c-0.412,0.877-0.772,1.839-1.08,2.885c-0.308,1.047-0.548,2.128-0.72,3.246
					s-0.258,2.224-0.258,3.319c0,1.458,0.149,2.931,0.448,4.418c0.298,1.486,0.705,2.867,1.219,4.141
					c0.514,1.274,1.091,2.318,1.731,3.13h-3.758c-1.262-1.644-2.199-3.429-2.812-5.355
					C747.801,494.283,747.495,492.171,747.495,489.875z" fill="#00B9D2"></path>
				<path d="M764.133,497.714c-1.305,0-2.467-0.24-3.485-0.72c-1.019-0.48-1.827-1.142-2.424-1.985
					s-0.908-1.81-0.933-2.899h3.878c0.043,0.732,0.351,1.326,0.923,1.782s1.252,0.683,2.041,0.683c0.628,0,1.183-0.14,1.667-0.42
					c0.483-0.28,0.862-0.671,1.136-1.172c0.274-0.502,0.411-1.079,0.411-1.731c0-0.665-0.14-1.25-0.42-1.754
					c-0.28-0.504-0.667-0.898-1.159-1.182c-0.493-0.283-1.056-0.428-1.69-0.434c-0.554,0-1.091,0.114-1.611,0.342
					c-0.521,0.228-0.925,0.539-1.214,0.933l-3.555-0.637l0.896-9.972h11.56v3.269h-8.264l-0.489,4.736h0.111
					c0.332-0.467,0.834-0.855,1.505-1.163s1.422-0.462,2.253-0.462c1.139,0,2.154,0.268,3.047,0.803
					c0.892,0.536,1.597,1.27,2.114,2.202s0.772,2.005,0.766,3.218c0.006,1.274-0.288,2.405-0.881,3.393
					c-0.594,0.988-1.422,1.764-2.484,2.327C766.769,497.433,765.536,497.714,764.133,497.714z" fill="#00B9D2"></path>
				<path d="M781.564,483.274v2.955h-8.541v-2.955H781.564z M774.963,479.876h3.934v13.222
					c0,0.363,0.055,0.645,0.166,0.845c0.111,0.2,0.266,0.34,0.466,0.42c0.2,0.08,0.432,0.12,0.697,0.12
					c0.185,0,0.37-0.017,0.554-0.051c0.185-0.034,0.326-0.06,0.425-0.078l0.619,2.927c-0.197,0.062-0.474,0.134-0.831,0.217
					s-0.791,0.134-1.302,0.152c-0.948,0.037-1.777-0.089-2.488-0.378c-0.711-0.29-1.264-0.739-1.657-1.348
					c-0.394-0.609-0.588-1.379-0.582-2.308V479.876z" fill="#00B9D2"></path>
				<path d="M788.351,489.257v8.199h-3.933v-18.909h3.822v7.229h0.166c0.32-0.837,0.837-1.494,1.551-1.971
					c0.714-0.477,1.609-0.716,2.687-0.716c0.984,0,1.845,0.214,2.581,0.642c0.735,0.428,1.308,1.04,1.717,1.837
					c0.409,0.797,0.611,1.75,0.604,2.857v9.03h-3.933v-8.328c0.006-0.874-0.214-1.554-0.66-2.041s-1.069-0.729-1.87-0.729
					c-0.536,0-1.008,0.114-1.417,0.342c-0.409,0.228-0.729,0.559-0.96,0.993C788.475,488.125,788.356,488.647,788.351,489.257z" fill="#00B9D2"></path>
				<path d="M819.29,484.659c-0.129-0.449-0.311-0.848-0.544-1.196c-0.234-0.348-0.519-0.643-0.854-0.886
					c-0.336-0.243-0.717-0.429-1.145-0.559s-0.9-0.194-1.417-0.194c-0.966,0-1.814,0.24-2.543,0.72s-1.297,1.177-1.704,2.091
					s-0.609,2.03-0.609,3.347c0,1.317,0.2,2.438,0.6,3.361c0.4,0.923,0.966,1.626,1.699,2.11c0.732,0.483,1.597,0.725,2.594,0.725
					c0.905,0,1.679-0.162,2.322-0.484c0.643-0.323,1.135-0.78,1.477-1.371c0.342-0.591,0.513-1.29,0.513-2.096l0.812,0.12h-4.875
					v-3.01h7.913v2.382c0,1.662-0.351,3.088-1.053,4.28c-0.702,1.191-1.668,2.108-2.899,2.751c-1.231,0.644-2.641,0.965-4.229,0.965
					c-1.772,0-3.33-0.392-4.672-1.177c-1.342-0.785-2.387-1.902-3.134-3.352c-0.748-1.45-1.122-3.172-1.122-5.166
					c0-1.533,0.223-2.9,0.669-4.104s1.072-2.224,1.879-3.061c0.806-0.837,1.745-1.474,2.816-1.911
					c1.071-0.437,2.231-0.655,3.481-0.655c1.071,0,2.068,0.155,2.992,0.466c0.923,0.311,1.743,0.75,2.46,1.315
					c0.717,0.566,1.303,1.239,1.759,2.018s0.748,1.636,0.877,2.571H819.29z" fill="#00B9D2"></path>
				<path d="M832.917,497.732c-1.459,0-2.713-0.297-3.763-0.891c-1.049-0.594-1.857-1.438-2.423-2.53
					c-0.566-1.092-0.85-2.387-0.85-3.882c0-1.458,0.283-2.739,0.85-3.841c0.566-1.102,1.365-1.96,2.396-2.576
					c1.031-0.615,2.242-0.923,3.633-0.923c0.936,0,1.808,0.149,2.618,0.448c0.81,0.298,1.517,0.746,2.124,1.343
					s1.079,1.347,1.417,2.248c0.338,0.902,0.508,1.956,0.508,3.163v1.08h-11.975v-2.438h8.272c0-0.566-0.123-1.068-0.369-1.505
					s-0.586-0.78-1.021-1.03c-0.434-0.249-0.937-0.374-1.509-0.374c-0.597,0-1.125,0.137-1.583,0.411s-0.817,0.64-1.076,1.099
					s-0.391,0.968-0.397,1.528v2.317c0,0.702,0.131,1.308,0.393,1.819c0.261,0.511,0.632,0.905,1.112,1.182
					c0.48,0.277,1.049,0.416,1.708,0.416c0.437,0,0.837-0.062,1.2-0.185c0.363-0.123,0.674-0.308,0.933-0.554
					c0.259-0.246,0.456-0.547,0.591-0.905l3.638,0.24c-0.185,0.874-0.562,1.636-1.131,2.285s-1.302,1.154-2.197,1.514
					C835.12,497.553,834.087,497.732,832.917,497.732z" fill="#00B9D2"></path>
				<path d="M845.927,489.257v8.199h-3.933v-14.182h3.749v2.502h0.166c0.314-0.825,0.84-1.479,1.579-1.962
					c0.739-0.483,1.634-0.725,2.687-0.725c0.985,0,1.843,0.216,2.576,0.646c0.732,0.431,1.302,1.045,1.708,1.842
					c0.406,0.797,0.609,1.747,0.609,2.849v9.03h-3.933v-8.328c0.006-0.868-0.216-1.546-0.665-2.036
					c-0.449-0.49-1.068-0.734-1.856-0.734c-0.529,0-0.996,0.114-1.398,0.342c-0.403,0.228-0.717,0.559-0.942,0.993
					C846.048,488.125,845.933,488.647,845.927,489.257z" fill="#00B9D2"></path>
				<path d="M864.79,489.875c0,2.296-0.306,4.407-0.918,6.333c-0.613,1.927-1.55,3.712-2.812,5.355h-3.758
					c0.48-0.609,0.926-1.354,1.339-2.234c0.412-0.88,0.772-1.842,1.08-2.886c0.308-1.043,0.548-2.125,0.72-3.245
					s0.259-2.228,0.259-3.324c0-1.459-0.149-2.932-0.448-4.418c-0.298-1.487-0.705-2.865-1.219-4.137
					c-0.514-1.271-1.091-2.312-1.731-3.125h3.758c1.262,1.643,2.199,3.428,2.812,5.355
					C864.483,485.478,864.79,487.585,864.79,489.875z" fill="#00B9D2"></path>
			</g>
		</g>
	</g>
</g>
<g id="_x32_D_x24_AG-DIAGRAM">
	<g id="POLYLINE_00000165204753036864420300000000302056411681916338_">
		<g>
			<g>
				<path d="M291.45,398.188
					c0.026-0.226,0.048-0.451,0.062-0.673c0.011-0.254,0.036-0.57,0.035-0.822c0.01-0.004,0.019-0.517,0.026-1.495" stroke-linejoin="round" stroke-linecap="round" stroke-width="2.75" stroke="#00B9D2" fill="none"></path>
				
					<path d="M291.597,389.238c0.11-44.727-0.197-275.56-0.048-275.714c0.001-2.465-0.585-4.937-1.695-7.139
					c-2.665-5.332-8.221-8.765-14.192-8.747c-0.276,0.002-195.098-0.004-195.351,0.002c-0.001,0-0.275,0.007-0.275,0.007
					l-0.274,0.012l-0.274,0.016l-0.273,0.021c-0.808,0.074-1.644,0.205-2.432,0.402c-1.771,0.437-3.477,1.186-4.995,2.197
					c-2.59,1.718-4.656,4.217-5.853,7.085c-0.198,0.472-0.373,0.955-0.525,1.446" stroke-dasharray="2.9821,5.9642" stroke-linejoin="round" stroke-linecap="round" stroke-width="2.75" stroke="#00B9D2" fill="none"></path>
				<path d="M64.799,111.754
					c-0.025,0.224-0.046,0.449-0.061,0.674c-0.011,0.254-0.036,0.57-0.036,0.822c-0.01,0.004-0.018,0.517-0.026,1.495" stroke-linejoin="round" stroke-linecap="round" stroke-width="2.75" stroke="#00B9D2" fill="none"></path>
				
					<path d="M64.652,120.705c-0.11,44.728,0.197,275.56,0.048,275.714c0,0,0.003,0.274,0.003,0.274l0.007,0.274l0.012,0.274l0.017,0.274
					c0.12,1.727,0.527,3.449,1.198,5.046c1.442,3.462,4.156,6.373,7.512,8.049c1.221,0.612,2.534,1.075,3.871,1.355
					c0.798,0.163,1.631,0.279,2.445,0.318c0.243,0.02,0.578,0.016,0.822,0.021h195.078c6.06,0.015,11.694-3.516,14.313-8.993
					c0.34-0.708,0.63-1.445,0.863-2.198" stroke-dasharray="2.9821,5.9642" stroke-linejoin="round" stroke-linecap="round" stroke-width="2.75" stroke="#00B9D2" fill="none"></path>
			</g>
		</g>
	</g>
	<g id="POLYLINE_00000119809371500309922920000010099108045471651256_">
		<g>
			<g>
				<path d="M917.92,412.245
					c0.959,0.016,1.471,0.036,1.494,0.059c0.503,0.001,1.003-0.022,1.499-0.069" stroke-linejoin="round" stroke-linecap="round" stroke-width="2.75" stroke="#00B9D2" fill="none"></path>
				
					<path d="M926.636,410.563c3.041-1.555,5.573-4.076,7.091-7.252c1.031-2.139,1.575-4.518,1.573-6.893c0,0,0-324.833,0-324.833
					l-0.002-0.274l-0.007-0.274l-0.012-0.274l-0.017-0.274c-0.044-0.524-0.102-1.113-0.198-1.633
					c-0.251-1.434-0.704-2.852-1.337-4.164c-2.528-5.286-7.898-8.8-13.764-8.984c-0.728-0.052-241.422,0.015-242.16-0.007
					c0,0-0.274,0.007-0.274,0.007l-0.274,0.012l-0.274,0.017l-0.273,0.021c-0.807,0.074-1.645,0.205-2.432,0.403
					c-1.682,0.416-3.308,1.111-4.766,2.047c-2.619,1.673-4.728,4.136-5.974,6.983c-0.697,1.587-1.136,3.298-1.285,5.025
					c-0.034,0.341-0.047,0.753-0.057,1.095c0.363,1.537-0.292,324.523,0.02,325.929c0.089,1.729,0.467,3.458,1.11,5.067
					c1.415,3.572,4.177,6.587,7.615,8.303c0.613,0.307,1.25,0.577,1.902,0.805" stroke-dasharray="2.9998,5.9996" stroke-linejoin="round" stroke-linecap="round" stroke-width="2.75" stroke="#00B9D2" fill="none"></path>
				<path d="M675.762,412.134
					c0.497,0.074,0.997,0.125,1.493,0.149c0.014,0.034,0.526,0.064,1.491,0.09" stroke-linejoin="round" stroke-linecap="round" stroke-width="2.75" stroke="#00B9D2" fill="none"></path>
				
					<path d="M684.72,412.457c37.09,0.303,200.922-0.454,230.207-0.244" stroke-dasharray="2.9896,5.9792" stroke-linejoin="round" stroke-linecap="round" stroke-width="2.75" stroke="#00B9D2" fill="none"></path>
			</g>
		</g>
	</g>
</g>
<g id="_x32_D_x24_AG-DETAILS-DIAGRAM">
	<g id="POLYLINE_00000081644861500760884680000011900548956536500110_">
		<g>
			<g>
				<path d="M178.076,230.797
					c-0.044,0.497-0.038,0.998,0.026,1.498c0.501,0.039,1.002,0.01,1.495-0.074" stroke-linejoin="round" stroke-linecap="round" stroke-width="2" stroke="#00B9D2" fill="none"></path>
				
					<path d="M183.723,230.139c0.855-0.77,1.569-1.698,2.111-2.714c0.267-0.496,0.496-1.016,0.68-1.552" stroke-dasharray="2.8059,4.6766" stroke-linejoin="round" stroke-linecap="round" stroke-width="2" stroke="#00B9D2" fill="none"></path>
				<path d="M186.993,223.591
					c0.038-0.498,0.032-1-0.023-1.499c-0.501,0.023-0.995,0.103-1.48,0.228" stroke-linejoin="round" stroke-linecap="round" stroke-width="2" stroke="#00B9D2" fill="none"></path>
				
					<path d="M181.456,224.451c-0.686,0.587-1.292,1.266-1.784,2.026c-0.426,0.65-0.794,1.354-1.072,2.09" stroke-dasharray="2.7574,4.5957" stroke-linejoin="round" stroke-linecap="round" stroke-width="2" stroke="#00B9D2" fill="none"></path>
			</g>
		</g>
	</g>
	<g id="POLYLINE_00000165934327544999841770000011998296799552115079_">
		<g>
			<g>
				<path d="M190.239,245.611
					c-0.006-0.5,0.028-1.001,0.102-1.496" stroke-linejoin="round" stroke-linecap="round" stroke-width="2" stroke="#00B9D2" fill="none"></path>
				
					<path d="M191.135,241.502c0.004-0.009,0.009-0.018,0.013-0.028c0.432-0.896,1.003-1.723,1.676-2.457" stroke-dasharray="1.6432,2.7387" stroke-linejoin="round" stroke-linecap="round" stroke-width="2" stroke="#00B9D2" fill="none"></path>
				<path d="M193.812,238.071
					c0.332-0.28,0.681-0.54,1.044-0.778l0.168-0.104c-0.281-0.413-0.594-0.805-0.935-1.172" stroke-linejoin="round" stroke-linecap="round" stroke-width="2" stroke="#00B9D2" fill="none"></path>
				
					<path d="M190.047,233.402c-1.004-0.351-2.062-0.554-3.122-0.605c-1.313-0.134-2.635,0.132-3.881,0.535
					c-1.198,0.372-2.608,1.05-3.818,1.38c-0.266,0.067-0.54,0.118-0.815,0.113c-0.639-0.018-1.256-0.241-1.851-0.457l-1.818-0.707
					c-0.942-0.35-1.921-0.652-2.927-0.736c-1.146-0.083-2.311,0.077-3.412,0.395c-2.119,0.62-4.019,1.93-5.399,3.648
					c-0.988,1.224-1.71,2.659-2.171,4.16c-1.806,5.953,0.128,13.329,3.259,18.544c0.884,1.408,1.873,2.807,2.962,4.064
					c0.95,1.063,2.073,2.081,3.476,2.473c0.873,0.247,1.804,0.156,2.673-0.062c0.724-0.174,1.688-0.619,2.382-0.903
					c1.575-0.666,3.32-0.875,5.004-0.56c0.953,0.168,1.949,0.625,2.837,1.006c0.515,0.214,1.051,0.402,1.6,0.504
					c0.833,0.153,1.706,0.161,2.527-0.065c2.164-0.609,3.611-2.517,4.869-4.262c0.845-1.16,1.612-2.389,2.269-3.673" stroke-dasharray="2.9158,4.8596" stroke-linejoin="round" stroke-linecap="round" stroke-width="2" stroke="#00B9D2" fill="none"></path>
				<path d="M195.687,255.98
					c0.134-0.344,0.26-0.691,0.376-1.041l0.119-0.373l-0.077-0.032c-0.431-0.192-0.849-0.414-1.25-0.665" stroke-linejoin="round" stroke-linecap="round" stroke-width="2" stroke="#00B9D2" fill="none"></path>
				
					<path d="M192.431,251.76c-0.341-0.409-0.649-0.846-0.917-1.306c-0.329-0.562-0.592-1.16-0.792-1.778" stroke-dasharray="1.9339,3.2231" stroke-linejoin="round" stroke-linecap="round" stroke-width="2" stroke="#00B9D2" fill="none"></path>
				<path d="M190.355,247.107
					c-0.074-0.495-0.113-0.996-0.115-1.496" stroke-linejoin="round" stroke-linecap="round" stroke-width="2" stroke="#00B9D2" fill="none"></path>
			</g>
		</g>
	</g>
	<g id="POLYLINE_00000159449726765168875790000010249162055032515496_">
		<g>
			
				<path d="M88.275,113.524c0.01-3.501-2.405-6.604-5.801-7.454c-4.835-1.215-9.524,2.402-9.576,7.387c-0.034,5.041,4.687,8.748,9.576,7.52
				C85.869,120.128,88.284,117.025,88.275,113.524z" stroke-dasharray="3.0169,5.0281" stroke-linejoin="round" stroke-linecap="round" stroke-width="2" stroke="#00B9D2" fill="none"></path>
		</g>
	</g>
	<g id="POLYLINE_00000000916592323077353180000010654052068630803128_">
		<g>
			<g>
				<path d="M797.283,212.697
					c-0.041,0.497-0.033,0.998,0.032,1.498c0.501,0.039,1.002,0.012,1.495-0.068" stroke-linejoin="round" stroke-linecap="round" stroke-width="2" stroke="#00B9D2" fill="none"></path>
				
					<path d="M803.114,211.975c0.887-0.797,1.628-1.758,2.189-2.812c0.281-0.522,0.521-1.069,0.713-1.633" stroke-dasharray="2.9223,4.8705" stroke-linejoin="round" stroke-linecap="round" stroke-width="2" stroke="#00B9D2" fill="none"></path>
				<path d="M806.504,205.152
					c0.035-0.499,0.028-1-0.028-1.499c-0.501,0.023-0.996,0.101-1.481,0.223" stroke-linejoin="round" stroke-linecap="round" stroke-width="2" stroke="#00B9D2" fill="none"></path>
				
					<path d="M800.789,206.083c-0.741,0.634-1.392,1.371-1.916,2.197c-0.418,0.653-0.78,1.357-1.055,2.091" stroke-dasharray="2.8721,4.7869" stroke-linejoin="round" stroke-linecap="round" stroke-width="2" stroke="#00B9D2" fill="none"></path>
			</g>
		</g>
	</g>
	<g id="POLYLINE_00000155855664381998790780000008283130840418984860_">
		<g>
			<g>
				<path d="M809.855,227.955
					c-0.006-0.5,0.027-1.001,0.098-1.496" stroke-linejoin="round" stroke-linecap="round" stroke-width="2" stroke="#00B9D2" fill="none"></path>
				
					<path d="M810.776,223.719c0.006-0.013,0.012-0.026,0.019-0.039c0.451-0.935,1.048-1.798,1.753-2.561" stroke-dasharray="1.7209,2.8681" stroke-linejoin="round" stroke-linecap="round" stroke-width="2" stroke="#00B9D2" fill="none"></path>
				<path d="M813.585,220.131
					c0.332-0.277,0.679-0.535,1.04-0.771l0.173-0.108c-0.281-0.413-0.593-0.806-0.932-1.174" stroke-linejoin="round" stroke-linecap="round" stroke-width="2" stroke="#00B9D2" fill="none"></path>
				
					<path d="M809.698,215.354c-1.05-0.372-2.157-0.586-3.268-0.64c-1.357-0.138-2.722,0.137-4.01,0.553
					c-1.238,0.384-2.695,1.085-3.945,1.425c-0.274,0.069-0.558,0.122-0.842,0.117c-0.66-0.019-1.298-0.249-1.913-0.472l-1.879-0.73
					c-0.952-0.353-1.941-0.66-2.956-0.755c-0.968-0.084-1.955,0.019-2.902,0.223c-2.342,0.518-4.48,1.847-6.036,3.666
					c-1.058,1.229-1.847,2.686-2.362,4.221c-2.066,6.217-0.037,14.044,3.252,19.52c0.913,1.455,1.935,2.9,3.06,4.2
					c0.982,1.099,2.142,2.15,3.591,2.555c0.902,0.255,1.864,0.161,2.762-0.064c0.748-0.18,1.744-0.64,2.461-0.933
					c1.633-0.689,3.425-0.904,5.17-0.578c0.985,0.174,2.014,0.646,2.931,1.039c0.532,0.221,1.086,0.415,1.653,0.521
					c0.748,0.137,1.528,0.162,2.276,0.012c2.406-0.5,4.006-2.594,5.366-4.483c0.882-1.211,1.683-2.496,2.366-3.838" stroke-dasharray="3.0157,5.0261" stroke-linejoin="round" stroke-linecap="round" stroke-width="2" stroke="#00B9D2" fill="none"></path>
				<path d="M815.502,238.622
					c0.132-0.34,0.255-0.683,0.37-1.029l0.123-0.385l-0.08-0.033c-0.43-0.191-0.848-0.412-1.249-0.661" stroke-linejoin="round" stroke-linecap="round" stroke-width="2" stroke="#00B9D2" fill="none"></path>
				
					<path d="M812.127,234.317c-0.33-0.395-0.63-0.815-0.895-1.256c-0.373-0.62-0.668-1.282-0.888-1.969" stroke-dasharray="2.0213,3.3688" stroke-linejoin="round" stroke-linecap="round" stroke-width="2" stroke="#00B9D2" fill="none"></path>
				<path d="M809.967,229.45
					c-0.072-0.496-0.109-0.996-0.112-1.496" stroke-linejoin="round" stroke-linecap="round" stroke-width="2" stroke="#00B9D2" fill="none"></path>
			</g>
		</g>
	</g>
	<g id="POLYLINE_00000138573821747498287850000005688792326886669737_">
		<g>
			
				<path d="M670.452,91.792c-0.014,4.236,2.504,8.168,6.358,9.927c1.369,0.631,2.876,0.975,4.383,1c0,0,0.189,0.002,0.189,0.002h19.444
				c0.235-0.002,0.519-0.008,0.754-0.026c0.874-0.061,1.753-0.229,2.587-0.497c2.762-0.876,5.13-2.902,6.422-5.495
				c0.678-1.346,1.074-2.84,1.151-4.346c0.004-0.169,0.017-0.396,0.015-0.566V74.89c-0.009-0.09,0.003-0.286-0.007-0.377
				c-0.018-0.495-0.07-1.012-0.156-1.5c-0.311-1.796-1.084-3.513-2.222-4.937c-1.487-1.872-3.607-3.23-5.929-3.797
				c-0.667-0.164-1.364-0.268-2.05-0.303c-0.17-0.005-0.396-0.017-0.566-0.015h-19.444c-0.235,0.002-0.519,0.008-0.754,0.026
				c-4.294,0.283-8.087,3.149-9.531,7.205c-0.318,0.884-0.523,1.821-0.604,2.757c-0.018,0.236-0.036,0.516-0.039,0.753l-0.002,0.189
				V91.792z" stroke-dasharray="2.9441,4.9068" stroke-linejoin="round" stroke-linecap="round" stroke-width="2" stroke="#00B9D2" fill="none"></path>
		</g>
	</g>
	<g id="POLYLINE_00000089568073507781080600000010466601350794584969_">
		<g>
			
				<path d="M707.054,83.341c0.009-2.456-1.693-4.642-4.075-5.236c-3.393-0.856-6.693,1.69-6.727,5.189c-0.027,3.538,3.296,6.147,6.727,5.283
				C705.361,87.983,707.063,85.797,707.054,83.341z" stroke-dasharray="3.1779,5.2965" stroke-linejoin="round" stroke-linecap="round" stroke-width="2" stroke="#00B9D2" fill="none"></path>
		</g>
	</g>
	<g id="POLYLINE_00000127746707264169354710000017063188437877652925_">
		<g>
			
				<path d="M703.305,94.86c0.001-0.365-0.124-0.728-0.348-1.015c-0.223-0.288-0.545-0.498-0.898-0.587c-0.493-0.128-1.041-0.009-1.437,0.311
				c-0.392,0.31-0.627,0.805-0.62,1.305c0.008,1.068,1.022,1.85,2.058,1.587c0.353-0.089,0.675-0.299,0.898-0.587
				C703.181,95.588,703.306,95.225,703.305,94.86z" stroke-dasharray="3.8858,6.4764" stroke-linejoin="round" stroke-linecap="round" stroke-width="2" stroke="#00B9D2" fill="none"></path>
		</g>
	</g>
	<g id="POLYLINE_00000085236843251925697370000000896469013545249940_">
		<g>
			
				<path d="M704.406,71.656c0.001-0.607-0.207-1.213-0.581-1.691c-0.372-0.48-0.908-0.83-1.497-0.978c-1.748-0.441-3.444,0.891-3.429,2.693
				c0.016,1.782,1.701,3.082,3.429,2.645c0.589-0.148,1.125-0.498,1.497-0.978C704.2,72.869,704.407,72.264,704.406,71.656z" stroke-dasharray="3.2382,5.3971" stroke-linejoin="round" stroke-linecap="round" stroke-width="2" stroke="#00B9D2" fill="none"></path>
		</g>
	</g>
	<g id="POLYLINE_00000095302145920191221790000008370021501089543076_">
		<g>
			
				<path d="M688.435,74.591c0.008-3.038-2.087-5.73-5.034-6.468c-4.195-1.055-8.265,2.084-8.31,6.41c-0.03,4.375,4.067,7.592,8.31,6.526
				C686.348,80.321,688.443,77.629,688.435,74.591z" stroke-dasharray="3.1415,5.2359" stroke-linejoin="round" stroke-linecap="round" stroke-width="2" stroke="#00B9D2" fill="none"></path>
		</g>
	</g>
	<g id="POLYLINE_00000041990657007240175690000013434134128186539707_">
		<g>
			
				<path d="M688.435,92.092c0.008,3.038-2.087,5.73-5.034,6.468c-4.195,1.055-8.265-2.084-8.31-6.41c-0.03-4.375,4.067-7.592,8.31-6.526
				C686.348,86.361,688.443,89.053,688.435,92.092z" stroke-dasharray="3.1415,5.2359" stroke-linejoin="round" stroke-linecap="round" stroke-width="2" stroke="#00B9D2" fill="none"></path>
		</g>
	</g>
</g>
<g id="_x32_D_x24_AG-DETAILS">
	<g id="POLYLINE_00000085942157504749279470000010448880283881511077_">
		
			<path d="M373.17,151.437c-0.216,0.001-0.421-0.102-0.575-0.249c-0.358-0.346-0.506-0.856-0.538-1.341
			c-0.003-0.051-0.005-0.107-0.005-0.157c0,0,0-27.407,0-27.407c0-0.048,0.002-0.109,0.005-0.157
			c0.007-0.121,0.023-0.246,0.046-0.365c0.046-0.226,0.121-0.448,0.237-0.648c0.167-0.295,0.451-0.564,0.805-0.577
			c0.374-0.013,0.681,0.268,0.855,0.577c0.115,0.2,0.191,0.423,0.237,0.648c0.024,0.119,0.039,0.243,0.046,0.365
			c0.003,0.051,0.005,0.107,0.005,0.157c0,0,0,27.407,0,27.407c0,0.048-0.002,0.109-0.005,0.157
			c-0.033,0.505-0.194,1.044-0.587,1.385C373.55,151.355,373.364,151.438,373.17,151.437z" stroke-miterlimit="10" stroke-linejoin="round" stroke-linecap="round" stroke-width="1.5" stroke="#00B9D2" fill="none"></path>
	</g>
	<g id="POLYLINE_00000023982222275780170830000003824922298142764976_">
		
			<path d="M493.777,252.307c-0.016-1.396,0.284-2.799,0.892-4.058c0.804-1.666,2.094-3.09,3.638-4.102l0.165-0.103
			c-0.728-1.068-1.67-1.994-2.76-2.689c-1.544-0.985-3.359-1.531-5.185-1.619c-1.288-0.132-2.585,0.13-3.807,0.525
			c-1.176,0.365-2.559,1.03-3.746,1.353c-0.26,0.066-0.53,0.116-0.799,0.111c-0.627-0.018-1.233-0.236-1.816-0.448l-1.784-0.693
			c-0.924-0.343-1.885-0.64-2.871-0.722c-1.237-0.088-2.494,0.106-3.67,0.489c-2.005,0.66-3.788,1.952-5.082,3.615
			c-0.951,1.217-1.64,2.636-2.073,4.117c-0.848,2.91-0.766,6.025-0.204,8.982c0.62,3.175,1.784,6.265,3.453,9.038
			c0.867,1.382,1.837,2.754,2.905,3.987c0.932,1.043,2.034,2.041,3.41,2.426c0.856,0.242,1.77,0.153,2.623-0.061
			c0.71-0.171,1.656-0.607,2.337-0.886c1.543-0.653,3.259-0.859,4.909-0.549c0.935,0.165,1.912,0.613,2.783,0.987
			c0.505,0.21,1.031,0.394,1.569,0.495c0.817,0.15,1.674,0.158,2.479-0.064c2.123-0.598,3.542-2.469,4.777-4.181
			c1.508-2.07,2.764-4.366,3.573-6.798l0.116-0.366l-0.076-0.031c-1.861-0.828-3.475-2.242-4.504-4.003
			C494.189,255.626,493.786,253.961,493.777,252.307" stroke-miterlimit="10" stroke-linejoin="round" stroke-linecap="round" stroke-width="1.5" stroke="#00B9D2" fill="none"></path>
	</g>
	<g id="POLYLINE_00000021826999756524912670000009442979353311914939_">
		
			<path d="M481.87,239.243c1.311,0.102,2.625-0.268,3.773-0.887c1.629-0.871,2.946-2.266,3.812-3.891c0.856-1.589,1.314-3.427,1.114-5.232
			c-1.24,0.057-2.443,0.472-3.535,1.046c-1.452,0.764-2.728,1.876-3.624,3.256C482.317,235.204,481.611,237.233,481.87,239.243z" stroke-miterlimit="10" stroke-linejoin="round" stroke-linecap="round" stroke-width="1.5" stroke="#00B9D2" fill="none"></path>
	</g>
</g>
<g id="_x32_D_x24_AG-DIGITAL">
	<g id="POLYLINE_00000059287814256874674730000012019423486202126762_">
		
			<path d="M487.169,412.304c0.071-0.108,0.112-0.239,0.102-0.369c-0.01-0.148-0.081-0.286-0.18-0.394c-0.164-0.178-0.39-0.287-0.622-0.348
			c-0.124-0.032-0.254-0.051-0.382-0.057c-0.026-0.001-0.06-0.002-0.085-0.002c0,0-3.32,0-3.32,0h-3.32
			c-0.025,0-0.061,0.001-0.085,0.002c-0.128,0.006-0.258,0.025-0.382,0.057c-0.235,0.062-0.466,0.174-0.63,0.357
			c-0.099,0.111-0.168,0.254-0.173,0.404c-0.005,0.124,0.035,0.247,0.103,0.35" stroke-miterlimit="10" stroke-linejoin="round" stroke-linecap="round" stroke-width="2.25" stroke="#00B9D2" fill="none"></path>
	</g>
	<g id="POLYLINE_00000047765136530441659840000010877469524710593433_">
		
			<path d="M395.897,93.826c0.188,0.127,0.343,0.309,0.416,0.525c0.064,0.187,0.062,0.395-0.007,0.58c-0.124,0.34-0.439,0.579-0.779,0.681
			c-0.114,0.035-0.234,0.055-0.353,0.062c-0.028,0.001-0.057,0.002-0.085,0.002c0,0-11.2,0-11.2,0c-0.153,0-0.307-0.023-0.453-0.069
			c-0.318-0.098-0.611-0.317-0.745-0.627c-0.078-0.178-0.094-0.382-0.044-0.57c0.052-0.197,0.173-0.373,0.328-0.504" stroke-miterlimit="10" stroke-linejoin="round" stroke-linecap="round" stroke-width="2.25" stroke="#00B9D2" fill="none"></path>
	</g>
	<g id="POLYLINE_00000112633119564311166200000008194284504912899239_">
		
			<path d="M579.125,93.826c-0.022,0.598-0.224,1.191-0.589,1.667c-0.455,0.604-1.188,1.002-1.951,0.997
			c-0.762,0.005-1.496-0.392-1.951-0.997c-0.365-0.476-0.567-1.07-0.589-1.667" stroke-miterlimit="10" stroke-linejoin="round" stroke-linecap="round" stroke-width="2.25" stroke="#00B9D2" fill="none"></path>
	</g>
	<g id="POLYLINE_00000106141035487375393960000002806109250634801579_">
		
			<path d="M483.317,108.215c0.003-0.286-0.201-0.548-0.479-0.616c-0.19-0.049-0.4-0.004-0.553,0.12c-0.151,0.119-0.241,0.31-0.239,0.502
			c0.001,0.196,0.098,0.388,0.256,0.504c0.154,0.116,0.361,0.155,0.546,0.103C483.12,108.757,483.32,108.497,483.317,108.215z" stroke-miterlimit="10" stroke-linejoin="round" stroke-linecap="round" stroke-width="2.25" stroke="#00B9D2" fill="none"></path>
	</g>
	<g id="POLYLINE_00000111161561433311056590000017196827653264861864_">
		
			<path d="M394.168,108.215c0.002-0.897-0.305-1.791-0.858-2.498c-0.549-0.709-1.341-1.226-2.211-1.444
			c-2.583-0.651-5.085,1.314-5.065,3.978c0.026,2.634,2.511,4.551,5.065,3.907c0.87-0.218,1.662-0.735,2.211-1.444
			C393.863,110.007,394.17,109.112,394.168,108.215z" stroke-miterlimit="10" stroke-linejoin="round" stroke-linecap="round" stroke-width="2.25" stroke="#00B9D2" fill="none"></path>
	</g>
	<g id="POLYLINE_00000097486480912447171660000015749216326296397472_">
		
			<path d="M372.053,139.205c0.003-0.494,0.126-1.012,0.447-1.398c0.147-0.173,0.347-0.313,0.576-0.343c0.521-0.065,0.9,0.419,1.06,0.861
			c0.086,0.231,0.133,0.477,0.148,0.723c0.003,0.05,0.005,0.107,0.005,0.157c0,0,0,10.485,0,10.485c0,0.063-0.003,0.134-0.007,0.197
			c-0.02,0.273-0.081,0.546-0.191,0.796c-0.116,0.262-0.293,0.512-0.547,0.654c-0.194,0.11-0.433,0.132-0.641,0.049
			c-0.408-0.166-0.639-0.589-0.755-0.993c-0.053-0.19-0.083-0.389-0.092-0.586c-0.001-0.036-0.003-0.082-0.003-0.117
			C372.053,149.69,372.053,139.205,372.053,139.205z" stroke-miterlimit="10" stroke-linejoin="round" stroke-linecap="round" stroke-width="2.25" stroke="#00B9D2" fill="none"></path>
	</g>
	<g id="POLYLINE_00000053525153284831189670000006859122754724115601_">
		
			<path d="M372.053,122.283c0.003-0.494,0.126-1.012,0.447-1.398c0.147-0.173,0.347-0.313,0.576-0.343c0.521-0.065,0.9,0.419,1.06,0.861
			c0.086,0.231,0.133,0.477,0.148,0.723c0.003,0.05,0.005,0.107,0.005,0.157c0,0,0,10.485,0,10.485c0,0.063-0.003,0.134-0.007,0.197
			c-0.02,0.273-0.081,0.546-0.191,0.796c-0.116,0.262-0.293,0.512-0.547,0.654c-0.194,0.11-0.433,0.132-0.641,0.049
			c-0.408-0.166-0.639-0.589-0.755-0.993c-0.053-0.19-0.083-0.389-0.092-0.586c-0.001-0.036-0.003-0.082-0.003-0.117
			C372.053,132.768,372.053,122.283,372.053,122.283z" stroke-miterlimit="10" stroke-linejoin="round" stroke-linecap="round" stroke-width="2.25" stroke="#00B9D2" fill="none"></path>
	</g>
	<g id="POLYLINE_00000067206098975083078130000011107032474229698191_">
		
			<path d="M384.38,412.304c-4.695,0.013-9.079-2.73-11.107-6.979c-0.583-1.212-0.97-2.527-1.131-3.863c-0.049-0.332-0.065-0.724-0.083-1.06
			c-0.304-0.088,0.204-294.043-0.008-294.249c0-1.913,0.454-3.832,1.315-5.54c2.064-4.132,6.384-6.804,11.013-6.788
			c0.189-0.04,196.636,0.027,196.815,0.002c0.001,0,0.213,0.006,0.213,0.006s0.213,0.009,0.213,0.009l0.212,0.013
			c0,0,0.212,0.017,0.212,0.017c0.626,0.058,1.276,0.159,1.888,0.312c1.374,0.339,2.698,0.92,3.876,1.705
			c2.129,1.411,3.799,3.503,4.7,5.893c0.502,1.324,0.776,2.743,0.799,4.159c0.059,0.274-0.036,293.955,0,294.249
			c0,0-0.006,0.213-0.006,0.213s-0.009,0.213-0.009,0.213s-0.013,0.212-0.013,0.212s-0.017,0.212-0.017,0.212
			c-0.122,1.409-0.491,2.809-1.084,4.094c-1.182,2.581-3.287,4.726-5.849,5.95c-0.892,0.427-1.845,0.755-2.813,0.957
			c-0.62,0.126-1.265,0.217-1.897,0.247C581.382,412.936,384.768,411.855,384.38,412.304z" stroke-miterlimit="10" stroke-linejoin="round" stroke-linecap="round" stroke-width="2.25" stroke="#00B9D2" fill="none"></path>
	</g>
</g>
<g id="_x32_D_x24_AG-OUTLINE">
	<g id="POLYLINE_00000074401053109875740370000000305579453952017571_">
		<path d="M384.38,412.304c-4.744,0.011-9.145-2.773-11.156-7.083c-0.467-0.996-0.804-2.059-0.991-3.144
			c-0.069-0.42-0.126-0.848-0.152-1.273c-0.468-0.281,0.279-294.169-0.029-294.651c0-1.892,0.443-3.785,1.285-5.479
			c2.056-4.17,6.383-6.862,11.043-6.848c0,0,11.517,0,11.517,0c0.413,0.007,185.117-0.013,185.495,0.007
			c0.514,0.019,1.041,0.067,1.547,0.15c1.701,0.273,3.347,0.909,4.788,1.853c2.16,1.407,3.857,3.512,4.772,5.923
			c0.501,1.314,0.777,2.716,0.807,4.122c0.01,0.45,0.003,293.92,0,294.371c-0.011,0.315-0.025,0.661-0.06,0.975
			c-0.14,1.38-0.517,2.741-1.108,3.996c-1.008,2.151-2.654,3.998-4.677,5.243c-1.086,0.67-2.28,1.174-3.519,1.479
			c-0.698,0.171-1.416,0.286-2.133,0.333C532.622,412.355,433.744,412.278,384.38,412.304z" stroke-miterlimit="10" stroke-linejoin="round" stroke-linecap="round" stroke-width="3" stroke="#00B9D2" fill="none"></path>
	</g>
</g>
</svg>
